PathFileType	4	(X/Y/Z)	D:\TRACE\v60_Jaco2_6-2-23\BothDRS_Motion1_9-v60.trc
DataRate	CameraRate	NumFrames	NumMarkers	Units	OrigDataRate	OrigDataStartFrame	OrigNumFrames
100.00	100.00	      42	9	mm	100.00	5626	      7500
Frame#	Time	front left toe			Front right toe			aft left toe			aft right toe			Arm			FL body			FR body			AL Body			AR Body			
		X1	Y1	Z1	X2	Y2	Z2	X3	Y3	Z3	X4	Y4	Z4	X5	Y5	Z5	X6	Y6	Z6	X7	Y7	Z7	X8	Y8	Z8	X9	Y9	Z9	

5626	56.250	-219.93585	6.53407	-218.18782	139.47829	7.46832	-243.43625	-200.71143	34.75093	403.85211	181.97925	31.21026	392.22064	46.37393	1066.76025	-618.76715	-120.03256	556.38849	-372.22360	39.82482	550.51349	-381.41638	-68.07683	576.26752	569.61426	90.14986	566.18127	564.79266	
5627	56.260	-219.20346	6.33953	-218.02020	141.02698	6.44691	-244.37219	-199.88559	30.59852	401.13046	183.30539	31.20685	392.10660	47.05463	1066.60986	-618.31641	-120.09184	556.63049	-372.86264	40.18024	550.77515	-382.04968	-67.08541	575.89441	569.10651	91.44214	565.97614	564.30225	
5628	56.270	-217.83150	6.27888	-218.29742	144.20369	4.73422	-244.96251	-200.06097	30.78726	401.55582	184.01221	30.97253	391.95016	47.93544	1066.84131	-617.82953	-119.91843	557.25958	-373.21408	39.84433	551.34479	-382.34210	-64.60444	576.88733	570.07721	94.18238	566.61700	563.60608	
5629	56.280	-217.07458	6.81685	-218.23627	144.73300	5.04872	-244.25870	-199.08673	29.73306	401.62454	184.60114	31.49216	391.67694	48.07673	1067.37976	-617.47394	-119.84093	557.87622	-373.18018	40.09974	551.84485	-382.58423	-62.69364	578.62036	569.04272	93.48692	567.87109	562.69092	
5630	56.290	-216.15964	7.48681	-218.53030	143.35539	4.99320	-244.78217	-197.99339	30.94122	401.33929	185.37447	31.98816	391.31213	48.25893	1068.03857	-617.55774	-119.27671	558.39301	-372.83578	40.44099	552.09912	-382.94290	-60.71012	582.26508	571.01984	95.92068	570.60895	562.62939	
5631	56.300	-215.23256	10.68875	-217.32224	143.79494	4.55449	-244.70428	-197.48024	29.90584	402.31839	184.74101	34.86301	392.07178	48.61121	1068.38489	-618.18799	-119.18343	558.77795	-372.73138	40.40144	552.38818	-382.96475	-58.84976	584.27887	571.13306	97.43276	572.54822	562.53894	
5632	56.310	-211.94003	13.59575	-214.79620	144.79126	4.79774	-244.70912	-196.98007	29.73954	401.99847	182.71228	38.05183	395.99658	48.47591	1068.04224	-618.87482	-119.71866	559.29108	-372.88004	39.60280	552.62921	-382.98239	-57.19962	585.88300	571.29138	99.18508	573.85925	562.18268	
5633	56.320	-206.77809	20.44464	-212.04343	145.40654	4.79737	-244.91528	-195.55128	30.08814	401.85666	180.09583	47.68735	396.59213	48.66920	1067.64429	-618.77509	-119.62047	560.04120	-372.85001	40.14334	553.44159	-383.95947	-55.47137	587.17883	571.03180	100.84240	574.97913	561.75812	
5634	56.330	-204.15695	29.41039	-212.51833	147.63237	4.99934	-244.50313	-195.10089	29.90242	402.10452	178.82550	56.41815	396.96411	48.94712	1067.43677	-618.33856	-118.46649	560.03345	-372.56757	40.65332	553.41882	-383.94156	-54.09829	588.11334	570.90930	102.39849	576.06213	561.41882	
5635	56.340	-202.99544	40.51041	-212.42482	148.33009	4.71518	-244.41473	-194.47504	30.08731	402.12683	179.17157	68.41127	395.21939	49.21554	1067.54749	-618.17511	-118.07549	559.85938	-372.65866	41.57140	553.22949	-384.14432	-52.79959	589.16107	570.67639	103.59409	576.87494	561.30096	
5636	56.350	-202.86351	51.98206	-214.37769	149.41690	4.72651	-244.49785	-193.60876	30.06170	402.14987	182.28432	80.77950	392.65067	49.67305	1067.51282	-618.07678	-117.53069	559.74756	-372.76273	41.80143	552.93158	-383.92596	-51.90217	589.51733	570.76233	103.45814	576.70593	560.81537	
5637	56.360	-203.53937	63.68657	-215.14850	150.25166	4.72595	-244.15552	-193.18559	29.74797	402.33203	187.02908	93.56683	390.46762	49.94233	1067.13977	-617.84448	-117.15442	559.42487	-373.16827	42.86330	552.92047	-384.19516	-51.48108	589.37390	570.80371	104.13720	576.60693	560.79279	
5638	56.370	-204.31154	76.59375	-216.15349	149.20859	4.20538	-244.81546	-192.48344	29.16611	402.07629	191.49820	105.70222	388.43619	50.67135	1066.46216	-617.24615	-115.91288	558.99158	-373.12158	44.17929	552.65833	-384.18692	-50.95512	588.87842	570.77734	105.71284	576.69720	561.05859	
5639	56.380	-205.09242	89.31322	-217.03500	150.20079	4.25333	-244.67354	-191.92358	28.97524	402.04282	195.20676	117.59076	386.90494	51.40104	1066.21289	-616.76526	-114.91776	558.57172	-373.19949	44.78400	552.40717	-383.77414	-50.39363	588.39740	570.70428	106.40784	576.40570	561.05902	
5640	56.390	-204.90964	100.92479	-217.65910	150.77365	4.19215	-244.61650	-191.43663	29.11913	401.89682	198.58328	129.06708	385.93527	52.17809	1066.05957	-616.41821	-113.58347	558.21344	-373.09637	45.29188	552.26367	-383.93051	-49.56491	587.95715	570.75244	106.11640	575.76068	560.69373	
5641	56.400	-204.41318	111.81407	-218.43729	151.41286	4.10714	-244.55232	-190.72958	28.87974	401.98108	200.32407	139.29948	385.18417	53.03699	1065.98340	-615.97357	-112.98949	558.07819	-373.11334	46.41825	552.19720	-383.83810	-48.61120	587.93500	570.94128	106.82262	575.61053	560.76282	
5642	56.410	-203.68155	121.28938	-218.97505	152.21039	4.09709	-244.61852	-190.12358	28.77240	401.94733	200.57260	148.69223	384.62204	53.47333	1065.90259	-615.74255	-112.56496	557.86493	-373.17026	47.42754	552.24335	-384.28427	-47.72417	587.77850	570.98242	108.39002	575.85669	561.32355	
5643	56.420	-203.33345	128.99554	-219.18782	152.80164	4.14473	-244.59438	-189.59901	28.59613	402.01093	201.89493	156.97960	383.93857	53.89133	1065.65723	-615.43213	-111.67663	557.36664	-372.76053	48.29245	552.03204	-383.68484	-47.18353	587.24365	570.71320	109.00639	575.86664	561.43622	
5644	56.430	-203.18546	134.66133	-218.87552	153.38136	4.22268	-244.49602	-189.02489	28.50393	402.17853	202.45961	162.48514	383.65500	54.28744	1065.30896	-614.97711	-110.08235	556.92462	-372.14990	49.35738	551.98016	-383.27286	-46.44066	587.04767	571.07336	110.90218	576.24219	562.32410	
5645	56.440	-203.66904	138.22766	-217.91032	154.05351	4.33094	-244.29117	-188.45976	28.33108	402.26541	204.82040	165.92769	383.66360	54.55789	1065.21350	-614.54553	-110.06296	557.27277	-372.07809	50.22341	551.93262	-383.05359	-45.71486	586.85339	571.69843	110.92054	576.01556	562.39325	
5646	56.450	-204.41121	139.17596	-216.95015	154.53395	4.36830	-244.14690	-188.15495	28.43685	402.31024	206.82500	165.79810	383.89294	54.80466	1065.13513	-614.16046	-109.00210	557.32697	-371.71448	50.77225	551.91724	-382.16971	-44.93928	586.79388	572.21466	111.23383	576.10333	562.80902	
5647	56.460	-204.99025	136.91679	-215.03256	155.02240	4.38849	-244.14125	-187.58458	28.50383	402.41748	209.22539	163.81992	384.38287	55.17663	1065.34961	-613.37756	-107.69948	557.45593	-371.15225	51.50034	552.15613	-381.92969	-44.58984	586.56372	572.54089	111.63859	576.44208	563.62085	
5648	56.470	-204.88210	132.18631	-213.50423	155.35968	4.45591	-244.12294	-186.99763	28.34844	402.39505	210.80759	159.67770	385.34543	56.07623	1065.54395	-612.28973	-107.18018	557.45331	-370.80988	52.62990	552.41486	-381.09613	-44.26907	586.65314	572.84180	112.78157	576.23206	563.69537	
5649	56.480	-204.35461	126.13791	-212.00543	155.81638	4.53485	-244.01389	-186.47278	28.03352	402.41003	211.14497	154.62515	386.56729	56.93966	1065.78613	-610.98029	-105.70190	557.02563	-370.00549	53.14720	552.46405	-380.71002	-43.18033	587.07050	573.62024	113.00927	576.20160	564.16907	
5650	56.490	-203.44464	119.24413	-210.52158	156.38286	4.60797	-243.87569	-186.17972	27.88875	402.52393	212.94955	149.22972	387.86548	57.93015	1066.35510	-609.67310	-105.93709	557.14960	-369.90067	53.97418	552.11993	-379.79651	-42.51163	586.47955	574.08575	113.41656	576.00372	564.80963	
5651	56.500	-203.13840	112.08543	-209.54848	156.85175	4.67144	-243.89262	-185.78152	27.79460	402.60864	214.26965	142.60478	389.18689	58.80263	1066.88306	-608.13202	-104.94501	557.12262	-368.94437	54.59827	552.29639	-379.05673	-41.77832	586.32764	574.84473	114.49910	576.15363	565.41736	
5652	56.510	-202.61780	104.05067	-208.58093	157.33080	4.77887	-243.77501	-185.57321	27.84613	402.62991	214.36403	134.23921	389.86288	59.50375	1067.38745	-606.59650	-103.88129	557.21191	-368.12650	55.29157	552.81720	-378.90204	-41.11609	586.08160	575.48187	115.14860	576.06946	566.01825	
5653	56.520	-202.87956	95.32365	-207.52771	157.58173	4.75685	-243.76422	-185.06033	27.61312	402.68921	216.26486	125.02912	390.87152	60.26291	1067.83704	-605.08337	-103.39287	557.24182	-367.76965	56.32999	552.91638	-378.26913	-40.54458	585.81354	576.14178	115.91083	575.70148	566.89618	
5654	56.530	-202.98901	86.40885	-206.29561	157.77849	4.77661	-243.68872	-184.51411	27.16189	402.88220	217.60477	115.50969	391.57248	60.88623	1068.08435	-603.71271	-102.98151	557.30035	-367.14023	57.22015	552.95172	-377.28140	-39.58797	585.63660	577.26526	116.32149	575.29138	567.54492	
5655	56.540	-203.24908	76.86810	-204.52290	158.19127	4.81706	-243.63898	-184.23033	26.97368	402.93475	219.48557	105.50673	393.09601	61.44366	1068.46265	-602.57642	-101.68345	557.23413	-366.33240	57.99020	552.95526	-376.49557	-39.03849	585.12402	578.04742	117.04276	574.91949	568.45697	
5656	56.550	-203.03749	66.89371	-202.91118	158.77794	5.00221	-243.47708	-183.78935	26.80107	403.12698	220.11763	94.96606	394.62476	61.96709	1068.82764	-600.99695	-100.23045	557.04895	-365.06546	58.94968	553.12146	-375.82187	-38.39744	584.46124	578.48352	118.06319	574.64282	569.10498	
5657	56.560	-202.64987	56.81672	-201.15971	159.20029	5.14317	-243.42271	-183.47339	26.71684	403.27618	220.98193	85.38645	396.10120	62.72079	1069.37195	-599.40356	-100.04607	557.29846	-364.55527	59.42776	553.28741	-374.99460	-37.27417	584.05414	579.10986	118.95653	574.34436	570.13409	
5658	56.570	-201.72507	47.21867	-199.72653	159.40622	5.21039	-243.34045	-183.22400	26.65107	403.40604	221.30328	76.29249	396.97772	63.24036	1070.03027	-597.95526	-98.86963	557.22565	-363.36316	60.38870	553.32941	-374.13297	-36.33994	583.77344	580.09161	119.44952	573.93689	570.78748	
5659	56.580	-200.81160	38.32757	-198.32124	159.66554	5.29081	-243.25844	-182.90605	26.49748	403.45578	222.50615	67.63064	397.88705	64.10045	1070.75854	-596.62610	-98.69955	557.67200	-362.76166	61.43516	553.77222	-373.63333	-35.66722	583.43829	581.15784	120.55716	573.75983	572.11340	
5660	56.590	-200.33208	29.81670	-196.96562	159.81796	5.25060	-243.22673	-182.59169	26.18587	403.47891	222.91020	59.44410	398.40460	65.37534	1071.39197	-595.05804	-97.83216	557.75415	-361.65964	61.66401	553.69812	-372.31995	-34.63277	582.94312	582.18146	121.49947	573.09558	572.65259	
5661	56.600	-198.98004	21.34923	-195.50864	159.92281	5.24497	-243.20132	-182.36610	26.05196	403.54770	224.13385	52.24563	399.30270	66.14553	1072.14563	-593.31854	-97.47373	557.76312	-360.59006	62.65218	553.55792	-371.42490	-33.62255	582.74860	583.35187	122.38838	572.78809	573.93701	
5662	56.610	-198.68576	15.17859	-194.06471	159.93785	5.22229	-243.15903	-182.30368	25.99447	403.61493	224.48991	45.37323	400.07062	66.81564	1072.85156	-591.80890	-96.93605	558.10016	-359.71570	63.13270	553.83801	-370.48987	-32.79945	582.22192	584.43323	123.57346	572.38782	574.78021	
5663	56.620	-199.07700	14.44865	-195.83977	159.96625	5.21365	-243.13081	-182.22032	25.97179	403.71426	225.40482	39.37080	401.24091	67.44034	1073.62012	-590.34900	-96.35130	558.19604	-358.39966	63.34779	553.65002	-368.65775	-31.80739	581.87720	585.52362	124.36179	572.03888	576.03607	
5664	56.630	-199.95091	11.70309	-195.60376	160.02690	5.27645	-243.10591	-182.22687	26.06286	403.80026	226.36888	33.31809	402.26694	68.52522	1074.31201	-588.60162	-95.41582	558.87500	-356.87543	64.01524	554.41272	-367.66278	-30.74244	581.65503	586.97876	125.43770	571.37799	577.31451	
5665	56.640	-200.61369	12.56507	-195.29977	159.96822	5.36080	-243.08089	-182.14241	26.09876	403.81039	226.65570	32.61792	400.02063	69.80388	1075.15784	-586.91650	-95.06754	560.23798	-355.69199	65.68729	555.20508	-366.52188	-29.64446	581.26440	588.26727	126.63918	570.92981	578.95282	
5666	56.650	-199.67010	13.24662	-195.62608	160.03508	5.58486	-242.89424	-181.99634	26.23304	403.96429	226.82639	29.31591	401.14471	70.62235	1076.33032	-584.97296	-93.74470	560.84479	-353.99493	65.73323	556.05029	-364.48602	-28.76107	581.80389	590.10040	127.26002	571.73419	580.42938	
5667	56.660	-198.97569	13.24948	-194.46783	160.11662	7.00904	-242.51320	-181.36292	26.64408	404.20752	227.86125	30.06522	400.66104	72.25352	1077.76440	-582.82819	-92.80116	561.06122	-352.22131	66.57623	556.50000	-363.12494	-27.96219	583.38800	591.82489	128.00740	573.28821	581.60803	
